<?xml version="1.0" encoding="UTF-8" standalone="no"?>

<svg
   xmlns:dc="http://purl.org/dc/elements/1.1/"
   xmlns:rdf="http://www.w3.org/1999/02/22-rdf-syntax-ns#"
   xmlns:svg="http://www.w3.org/2000/svg"
   xmlns="http://www.w3.org/2000/svg"
   width="691.55005"
   height="325.42108"
   viewBox="0 0 691.55005 325.42108"
   id="svg2"
   version="1.1">
  
  
  <g
     id="layer1"
     transform="matrix(-1,0,0,1,691.55002,0)">
    <path
       id="twitter"
       fill="#3aaae1"
       d="m 420.5317221,117.96529 c -14.77743,1.95899 -29.98114,1.74874 -45.24467,-0.82035 17.70184,-4.60118 33.46057,-15.49218 43.90429,-30.91885 -16.54307,4.2178 -33.92721,5.70056 -51.49546,4.09121 -9.13509,-18.07636 -25.48264,-32.49454 -46.45256,-38.65462 -40.26255,-11.82745 -82.4967,11.22454 -94.32413,51.48709 -1.67861,5.71423 -2.66836,11.46867 -2.99381,17.16927 -59.69976,-20.83973 -104.89327,-65.64644 -127.8949,-120.31904 -9.438729,8.92394 -16.713711,20.39048 -20.638788,33.7521 -7.430515,25.29469 -1.114495,51.39069 14.607667,70.21116 -11.839642,-3.8891 -22.118006,-10.4715 -30.343371,-18.81907 -0.09588,0.30188 -0.185665,0.60749 -0.275962,0.91488 -10.37641,35.32302 6.098757,72.17214 37.483514,88.66828 -6.607159,-0.13042 -13.309606,-1.13232 -19.958434,-3.08547 -4.69789,-1.38004 -9.129632,-3.17987 -13.332806,-5.3372 0.770146,31.68943 21.501728,60.67866 53.23391,70.63719 -30.696364,12.22582 -65.555201,14.64554 -99.714386,4.61101 -5.88479,-1.72869 -11.586602,-3.7781 -17.0918261,-6.12874 26.1880301,30.16554 60.9641391,53.49463 102.1364221,65.58933 134.10131,39.3932 240.07018,-50.15752 268.37199,-146.50157 0.92856,-3.16095 1.78083,-6.32501 2.55961,-9.49522 17.26367,-6.09259 33.3953,-15.3029 47.46416,-27.05126 z" />
    <path
       style="fill:#387cab;fill-opacity:1;stroke:none"
       d="m 285.7190621,198.92711 398.44791,0.0501 c 9.73214,8.30304 9.95536,22.00788 0,30.93592 l -398.44204,0 z"
       id="Lance" />
    <path
       fill="#ff9700"
       d="m 342.2303321,250.93689 0,-71.97337 c 19.75646,16.74998 33.01937,19.98208 33.01937,19.98208 l 28.94041,-0.002 -20.48777,31.02361 -3.55972,0.009 c 0,0 -18.04272,4.15217 -37.91229,20.9604 z"
       id="deco-1" />
    <path
       fill="#ff9700"
       d="m 403.096,229.9311 21.00368,-30.9855 20.12355,0.009 -21.11791,31.0217 z"
       id="deco-2" />
    <path
       fill="#ff9700"
       d="m 442.781,229.94085 21.00368,-30.9855 20.12355,0.009 -21.11791,31.0217 z"
       id="deco-3" />
    <path
       fill="#ff9700"
       d="m 483.3773621,229.92692 21.00368,-30.9855 20.12355,0.009 -21.11791,31.0217 z"
       id="deco-4" />
    <path
       fill="#ff9700"
       d="m 522.9791721,229.92692 21.00368,-30.9855 20.12355,0.009 -21.11791,31.0217 z"
       id="deco-5" />
    <path
       fill="#ff9700"
       d="m 563.2470321,229.92692 21.00368,-30.9855 20.12355,0.009 -21.11791,31.0217 z"
       id="deco-6" />
    <path
       fill="#ff9700"
       d="m 603.1573621,229.93785 21.00368,-30.9855 20.12355,0.009 -21.11791,31.0217 z"
       id="deco-7" />
    <path
       fill="#ff9700"
       d="m 642.9791821,229.92692 21.00368,-30.9855 20.12355,0.009 -21.11791,31.0217 z"
       id="deco-8" />
    <path
       fill="#ff9700"
       d="m 682.9199021,229.91181 8.31814,-12.08898 c -0.98911,5.75577 -4.79591,10.16961 -7.07003,12.09425 z"
       id="deco-9" />
    <path
       fill="#ffc36c"
       d="m 202,161.51384 100,0 c 5.0064,-0.0128 9.98123,5.05674 10,10 l 0,101 c 0.0234,4.98061 0.0893,4.02343 -60,49.00023 -60.17857,-45.08355 -59.97768,-44.0285 -60,-49.00023 l 0,-101 c -0.0286,-5.02218 4.96203,-9.99701 10,-10 z"
       id="Bouclier" />
    <path
       style="fill:none;stroke-width:8;stroke-linecap:butt;stroke-linejoin:miter;stroke-miterlimit:4;stroke-opacity:1;stroke-dasharray:none"
       stroke="#ff9700"
       d="m 202,161.51384 100,0 c 5.0064,-0.0128 9.98123,5.05674 10,10 l 0,101 c 0.0234,4.98061 0.0893,4.02343 -60,49.00002 -60.17857,-45.08334 -59.97768,-44.02829 -60,-49.00002 l 0,-101 c -0.0286,-5.02218 4.96203,-9.99701 10,-10 z"
       id="BouclierExt" />
  </g>
</svg>
